<?xml version="1.0" standalone="no"?>
<!DOCTYPE svg PUBLIC "-//W3C//DTD SVG 20010904//EN"
 "http://www.w3.org/TR/2001/REC-SVG-20010904/DTD/svg10.dtd">
<svg version="1.0" xmlns="http://www.w3.org/2000/svg"
 width="400.000000pt" height="400.000000pt" viewBox="0 0 400.000000 400.000000"
 preserveAspectRatio="xMidYMid meet">
<metadata>
Created by potrace 1.11, written by Peter Selinger 2001-2013
</metadata>
<g transform="translate(0.000000,400.000000) scale(0.100000,-0.100000)"
fill="#000000" stroke="none">
<path d="M2298 3104 c-111 -30 -161 -73 -139 -121 6 -13 11 -49 11 -79 0 -85
28 -124 125 -179 47 -26 47 -26 62 -5 8 11 23 20 33 20 10 0 22 5 25 10 3 6
12 10 20 10 8 0 26 5 42 12 15 6 33 10 40 9 22 -3 63 41 63 68 0 31 -43 70
-97 88 -33 11 -34 13 -8 9 17 -2 38 -7 48 -11 15 -6 17 -4 12 18 -8 32 29 70
58 61 17 -5 19 -3 14 17 -4 13 -7 26 -7 29 0 8 -73 35 -84 32 -5 -2 -12 1 -15
6 -9 15 -155 19 -203 6z m153 -267 c-13 -13 -26 -3 -16 12 3 6 11 8 17 5 6 -4
6 -10 -1 -17z"/>
<path d="M1686 3075 c-55 -29 -56 -30 -56 -9 0 10 -5 12 -12 7 -7 -4 -23 -7
-35 -8 -27 0 -43 -15 -17 -16 18 0 18 -1 -1 -10 -15 -7 -12 -8 13 -3 27 5 33
2 41 -18 7 -19 3 -29 -21 -55 -17 -17 -28 -35 -25 -40 3 -5 -3 -17 -14 -26
-10 -9 -19 -26 -19 -37 0 -15 7 -20 29 -20 16 0 37 -7 45 -16 19 -18 34 -11
46 22 5 13 14 24 19 24 12 0 42 -48 44 -71 1 -19 23 -28 104 -43 27 -4 36 0
67 34 23 25 33 45 29 56 -4 10 3 24 19 37 26 24 68 99 68 123 0 8 -8 18 -17
21 -10 4 -24 13 -31 20 -7 7 -25 16 -40 19 -15 3 -41 12 -59 20 -49 22 -123
18 -177 -11z m34 -125 c-20 -13 -63 -13 -55 0 3 6 21 10 38 10 24 0 28 -3 17
-10z m-15 -30 c-11 -5 -27 -9 -35 -9 -13 -1 -13 0 0 9 8 5 24 9 35 9 l20 0
-20 -9z"/>
<path d="M1240 2851 c0 -5 5 -13 10 -16 6 -3 10 -2 10 4 0 5 -4 13 -10 16 -5
3 -10 2 -10 -4z"/>
<path d="M2741 2821 c-10 -6 -9 -19 2 -62 l14 -54 4 58 c4 62 1 71 -20 58z"/>
<path d="M1310 2710 c-12 -23 -16 -107 -6 -118 4 -4 16 4 26 18 l20 25 1 -55
c6 -173 20 -289 49 -397 11 -40 20 -83 20 -95 0 -12 17 -42 38 -67 21 -25 44
-61 51 -78 8 -18 17 -33 22 -33 14 0 77 -101 100 -162 20 -55 83 -128 109
-128 6 0 24 -13 40 -29 16 -15 48 -38 72 -49 24 -12 37 -21 30 -22 -25 0 73
-85 118 -101 38 -14 42 -18 25 -25 -11 -4 -29 -18 -41 -31 -12 -13 -36 -28
-53 -34 -39 -14 -41 -41 -4 -75 25 -23 34 -25 78 -20 48 7 101 35 118 63 4 7
14 13 21 13 8 0 19 7 26 15 7 8 27 19 44 24 17 5 23 10 14 10 -11 1 -15 6 -12
16 4 10 14 14 28 10 14 -4 17 -3 8 3 -7 5 -12 13 -11 18 4 25 -3 44 -16 44
-12 0 -13 4 -5 19 5 11 7 26 4 34 -3 9 10 31 33 55 38 40 127 138 151 166 6 8
12 18 12 21 0 4 13 26 30 50 17 24 30 52 30 62 0 11 4 23 9 29 23 25 121 228
144 299 14 44 33 136 43 205 10 70 25 140 36 160 20 39 22 59 9 92 -5 13 -12
36 -16 51 -7 35 -25 26 -25 -13 0 -45 -41 -293 -51 -312 -6 -10 -20 -18 -34
-18 -13 0 -37 -12 -54 -26 -23 -19 -38 -24 -56 -20 -20 5 -23 3 -19 -11 5 -17
5 -17 -8 -1 -18 22 -61 38 -99 38 -17 0 -49 8 -72 19 -23 10 -48 20 -56 23
-11 3 -11 6 1 19 33 33 30 53 -12 73 -38 18 -41 19 -60 1 -14 -13 -23 -15 -32
-7 -20 16 -88 -8 -88 -30 0 -10 -4 -18 -10 -18 -5 0 -10 7 -10 16 0 20 -28 43
-51 44 -9 0 -27 -9 -40 -20 -23 -20 -24 -20 -5 -35 13 -10 31 -13 56 -9 26 4
40 2 49 -10 19 -23 9 -29 -50 -32 -41 -2 -54 -8 -71 -29 -12 -16 -28 -25 -38
-22 -9 2 -25 0 -34 -5 -10 -5 -16 -5 -16 1 0 5 -26 8 -58 6 -50 -2 -63 -7 -90
-34 -17 -18 -36 -40 -42 -49 -6 -11 -10 -12 -10 -4 0 7 -4 10 -10 7 -5 -3 -10
3 -10 14 0 11 -10 26 -22 32 -13 6 -32 21 -42 32 -13 13 -21 16 -24 9 -6 -18
-22 -14 -23 6 0 14 -2 14 -8 -3 -8 -19 -8 -19 -15 3 -4 12 -12 22 -17 22 -5 0
-9 20 -9 44 0 28 -5 46 -14 49 -7 3 -16 16 -18 29 -17 78 -37 179 -43 216 -5
32 -11 42 -26 42 -10 0 -23 -9 -29 -20z m621 -540 c16 -9 117 -24 214 -32 14
-1 24 -7 22 -13 -5 -14 -194 -16 -232 -3 -16 6 -38 18 -48 26 -9 8 -20 12 -24
8 -4 -4 10 -23 32 -41 29 -25 35 -34 23 -35 -10 0 -18 -6 -18 -14 0 -21 26
-67 33 -59 4 3 7 1 7 -5 0 -7 13 -12 30 -12 17 0 37 -9 49 -21 22 -24 76 -28
124 -10 15 6 34 8 42 5 8 -4 22 -1 30 6 11 10 18 9 31 -5 15 -15 15 -18 -7
-41 -30 -32 -108 -67 -123 -55 -6 5 -31 7 -56 4 -25 -2 -55 -4 -68 -3 -13 0
-33 -5 -44 -11 -17 -9 -23 -8 -30 4 -5 9 -15 14 -22 11 -7 -3 -16 2 -20 11 -3
10 -12 15 -21 11 -10 -4 -15 1 -15 14 0 11 -4 20 -10 20 -5 0 -9 3 -7 8 1 4
-8 17 -20 29 -14 14 -20 29 -16 39 4 11 -2 23 -17 34 -16 12 -23 27 -22 49 1
38 28 85 45 78 7 -2 21 -1 32 4 29 11 83 11 106 -1z m349 -120 c0 -5 -4 -10
-10 -10 -5 0 -10 5 -10 10 0 6 5 10 10 10 6 0 10 -4 10 -10z m-25 -53 c10 -8
14 -17 8 -20 -5 -3 -17 3 -26 14 -19 22 -9 25 18 6z"/>
<path d="M1698 2388 c-21 -23 -36 -43 -34 -46 12 -12 96 57 96 79 0 20 -27 6
-62 -33z"/>
<path d="M1427 1801 c-23 -22 -48 -55 -55 -75 -7 -19 -31 -62 -53 -96 -47 -69
-64 -79 -384 -214 -99 -42 -196 -85 -215 -95 -56 -30 -110 -60 -133 -75 -12
-8 -53 -26 -92 -42 -38 -15 -84 -38 -101 -51 -17 -12 -36 -23 -43 -23 -18 0
-191 -159 -191 -176 0 -8 -13 -41 -30 -74 -16 -32 -48 -105 -71 -162 -23 -57
-45 -107 -50 -112 -5 -6 -9 -144 -9 -308 l0 -298 2000 0 2000 0 0 419 c0 277
-4 422 -10 426 -6 4 -28 42 -50 84 -41 83 -73 120 -154 181 -95 72 -171 104
-851 370 -115 45 -216 86 -222 92 -7 6 -23 42 -35 81 -17 53 -33 82 -61 109
-37 36 -73 55 -83 45 -3 -3 0 -41 6 -85 10 -67 9 -89 -4 -142 -16 -61 -48
-120 -67 -120 -5 0 -9 -7 -9 -15 0 -8 -5 -15 -10 -15 -6 0 -32 -21 -59 -47
-26 -27 -62 -61 -79 -76 -35 -31 -50 -84 -33 -115 9 -17 4 -26 -33 -60 -24
-22 -61 -48 -82 -58 -21 -10 -56 -28 -76 -41 -21 -13 -44 -23 -52 -23 -7 0
-19 -13 -26 -29 -6 -16 -24 -41 -39 -56 l-29 -26 -53 45 c-30 25 -70 57 -89
70 -19 13 -60 48 -91 77 -47 44 -58 62 -64 98 -5 30 -27 73 -69 135 -81 117
-86 127 -107 211 -22 85 -24 131 -5 176 21 50 31 129 17 129 -6 0 -31 -18 -54
-39z m206 -746 c10 -14 15 -25 11 -25 -11 0 -44 32 -44 42 0 15 15 8 33 -17z
m339 -302 c26 -23 24 -72 -4 -82 -59 -21 -95 35 -55 87 13 17 37 15 59 -5z"/>
</g>
</svg>
